<svg width="11" height="6" viewBox="0 0 11 6" fill="none" xmlns="http://www.w3.org/2000/svg">
<path d="M5.80522 5.62838L10.0965 1.09733C10.1681 1.02172 10.2079 0.921447 10.2076 0.817294C10.2072 0.713143 10.1669 0.613108 10.0948 0.537939L10.0899 0.533089C10.0549 0.496521 10.0129 0.467447 9.96637 0.447633C9.91983 0.427818 9.86975 0.417679 9.81916 0.417831C9.76858 0.417984 9.71856 0.428425 9.67214 0.44852C9.62572 0.468614 9.58387 0.497942 9.54914 0.53472L5.50844 4.80153L1.4437 0.559165C1.40875 0.522598 1.36672 0.493523 1.32018 0.473709C1.27364 0.453895 1.22356 0.443755 1.17298 0.443908C1.12239 0.44406 1.07237 0.454502 1.02595 0.474596C0.97953 0.494691 0.937683 0.524019 0.902955 0.560796L0.898105 0.565675C0.826468 0.641278 0.786679 0.741555 0.786993 0.845706C0.787308 0.949859 0.8277 1.04989 0.899792 1.12506L5.21827 5.63015C5.25625 5.66977 5.30188 5.70127 5.35239 5.72273C5.4029 5.74419 5.45725 5.75517 5.51213 5.755C5.56701 5.75484 5.62129 5.74353 5.67167 5.72176C5.72205 5.7 5.76749 5.66823 5.80522 5.62838Z" fill="black" fill-opacity="0.4"/>
</svg>
