<svg width="26" height="23" viewBox="0 0 26 23" fill="none" xmlns="http://www.w3.org/2000/svg">
<path d="M8.18093 6.10619C8.40249 6.10619 8.59423 6.02563 8.75615 5.86449C8.91806 5.70336 8.99902 5.51254 8.99902 5.29204C8.99902 4.85951 8.91806 4.44395 8.75615 4.04535C8.59423 3.64675 8.35562 3.2948 8.04032 2.98949L7.03048 1.97179C6.70665 1.64952 6.54474 1.26364 6.54474 0.814159C6.54474 0.593658 6.46378 0.402839 6.30187 0.241704C6.13996 0.0805678 5.94821 0 5.72665 0C5.50508 0 5.31334 0.0805678 5.15143 0.241704C4.98951 0.402839 4.90856 0.593658 4.90856 0.814159C4.90856 1.24668 4.98951 1.66224 5.15143 2.06084C5.31334 2.45944 5.55195 2.81139 5.86726 3.1167L6.87709 4.1344C7.20092 4.45667 7.36283 4.84255 7.36283 5.29204C7.36283 5.51254 7.44379 5.70336 7.6057 5.86449C7.76762 6.02563 7.95936 6.10619 8.18093 6.10619ZM13.0895 6.10619C13.311 6.10619 13.5028 6.02563 13.6647 5.86449C13.8266 5.70336 13.9076 5.51254 13.9076 5.29204C13.9076 4.85951 13.8266 4.44395 13.6647 4.04535C13.5028 3.64675 13.2642 3.2948 12.9489 2.98949L11.939 1.97179C11.6152 1.64952 11.4533 1.26364 11.4533 0.814159C11.4533 0.593658 11.3723 0.402839 11.2104 0.241704C11.0485 0.0805678 10.8568 0 10.6352 0C10.4136 0 10.2219 0.0805678 10.06 0.241704C9.89807 0.402839 9.81711 0.593658 9.81711 0.814159C9.81711 1.24668 9.89807 1.66224 10.06 2.06084C10.2219 2.45944 10.4605 2.81139 10.7758 3.1167L11.7856 4.1344C12.1095 4.45667 12.2714 4.84255 12.2714 5.29204C12.2714 5.51254 12.3523 5.70336 12.5143 5.86449C12.6762 6.02563 12.8679 6.10619 13.0895 6.10619ZM2.45428 8.34513C2.11341 8.34513 1.79384 8.40874 1.49558 8.53595C1.19731 8.66316 0.937399 8.83702 0.715832 9.05752C0.494265 9.27802 0.319569 9.53669 0.191742 9.83352C0.0639133 10.1303 0 10.4484 0 10.7876V15.6726C0 16.0118 0.0639133 16.3298 0.191742 16.6267C0.319569 16.9235 0.494265 17.1822 0.715832 17.4027C0.937399 17.6232 1.19731 17.797 1.49558 17.9242C1.79384 18.0514 2.11341 18.115 2.45428 18.115H3.18289C3.19994 18.1744 3.21272 18.2295 3.22124 18.2804C3.22976 18.3313 3.24681 18.3822 3.27237 18.4331V18.9292C3.27237 19.4889 3.37889 20.0147 3.59194 20.5066C3.80498 20.9985 4.09898 21.431 4.47394 21.8042C4.8489 22.1774 5.28351 22.4699 5.77778 22.682C6.27204 22.894 6.80039 23 7.36283 23H12.2714C12.9361 23 13.5497 22.8516 14.1121 22.5548C14.6745 22.2579 15.1432 21.8636 15.5182 21.3717H21.9095C22.472 21.3717 23.0003 21.2657 23.4946 21.0536C23.9889 20.8416 24.4235 20.5533 24.7984 20.1886C25.1734 19.8239 25.4674 19.3914 25.6804 18.891C25.8935 18.3907 26 17.8606 26 17.3009V16.4867H22.7276C22.7276 15.8167 22.5998 15.1849 22.3441 14.5913C22.0885 13.9976 21.7348 13.4803 21.2832 13.0393C20.8315 12.5983 20.3117 12.2463 19.7237 11.9834C19.1357 11.7205 18.5008 11.5933 17.8191 11.6018C17.5634 11.6018 17.3163 11.623 17.0777 11.6654C16.8391 11.7078 16.6005 11.7671 16.3618 11.8435V6.71681H3.27237V8.34513H2.45428ZM17.8191 13.2301C18.2707 13.2301 18.6926 13.3149 19.0846 13.4845C19.4766 13.6541 19.826 13.8874 20.1327 14.1842C20.4395 14.481 20.6739 14.8245 20.8358 15.2146C20.9977 15.6047 21.0829 16.0288 21.0914 16.4867H16.3618V13.5863C16.5834 13.476 16.8135 13.3912 17.0521 13.3319C17.2907 13.2725 17.5464 13.2386 17.8191 13.2301ZM21.9095 19.7434H16.2724C16.332 19.4974 16.3618 19.226 16.3618 18.9292V18.115H24.2232C24.138 18.3525 24.0187 18.5688 23.8653 18.7638C23.7119 18.9589 23.5372 19.1327 23.3412 19.2854C23.1452 19.4381 22.9236 19.5483 22.6765 19.6161C22.4294 19.684 22.1737 19.7264 21.9095 19.7434ZM15.9912 20.5957V20.6084L15.9784 20.6338V20.6211L15.9912 20.5957ZM4.90856 18.9292V8.34513H14.7257V18.9292C14.7257 19.2684 14.6618 19.5865 14.5339 19.8833C14.4061 20.1801 14.2314 20.4388 14.0098 20.6593C13.7883 20.8798 13.5284 21.0536 13.2301 21.1809C12.9318 21.3081 12.6123 21.3717 12.2714 21.3717H7.36283C7.02196 21.3717 6.70239 21.3081 6.40413 21.1809C6.10587 21.0536 5.84595 20.8798 5.62439 20.6593C5.40282 20.4388 5.22812 20.1801 5.1003 19.8833C4.97247 19.5865 4.90856 19.2684 4.90856 18.9292ZM1.63618 15.6726V10.7876C1.63618 10.5671 1.71714 10.3763 1.87906 10.2152C2.04097 10.054 2.23271 9.97345 2.45428 9.97345H3.27237V16.4867H2.45428C2.23271 16.4867 2.04097 16.4062 1.87906 16.245C1.71714 16.0839 1.63618 15.8931 1.63618 15.6726Z" fill="black"/>
</svg>
