<svg width="21" height="20" viewBox="0 0 21 20" fill="none" xmlns="http://www.w3.org/2000/svg">
<path d="M9.47 19.1667C5.478 19.1667 3.481 19.1667 2.24 18.0924C1 17.019 1 15.2901 1 11.8334V8.16671C1 4.70996 1 2.98112 2.24 1.90771C3.481 0.833374 5.478 0.833374 9.47 0.833374H10.53C14.523 0.833374 16.519 0.833374 17.76 1.90771C19 2.98112 19 4.70996 19 8.16671M9.5 19.1667H11M6 5.41671H14M6 10H11" stroke="black" stroke-width="1.5" stroke-linecap="round" stroke-linejoin="round"/>
<path d="M15.5 16.0409L14.598 18.9312C14.5889 18.9639 14.5899 18.9984 14.6008 19.0307C14.6118 19.063 14.6322 19.0919 14.66 19.1142C14.6877 19.1365 14.7216 19.1513 14.758 19.157C14.7944 19.1627 14.8317 19.1591 14.866 19.1466L16.851 18.4197C16.9466 18.3845 17.0534 18.3845 17.149 18.4197L19.153 19.153C19.1865 19.1653 19.2231 19.169 19.2587 19.1637C19.2943 19.1585 19.3278 19.1445 19.3555 19.1233C19.3831 19.1021 19.404 19.0743 19.4159 19.0431C19.4278 19.0119 19.4303 18.9782 19.423 18.9458L18.659 15.9502M20 13.6622C19.9987 12.9336 19.682 12.2353 19.1196 11.7206C18.5571 11.2058 17.7948 10.9167 17 10.9167C15.343 10.9167 14 12.146 14 13.6622C14.0003 14.023 14.0781 14.3803 14.229 14.7136C14.3799 15.0468 14.601 15.3496 14.8796 15.6046C15.1582 15.8595 15.4888 16.0616 15.8526 16.1994C16.2165 16.3372 16.6063 16.4079 17 16.4076C18.657 16.4076 20 15.1792 20 13.6622Z" stroke="black" stroke-width="1.5" stroke-linecap="round" stroke-linejoin="round"/>
</svg>
