<svg width="21" height="21" viewBox="0 0 21 21" fill="none" xmlns="http://www.w3.org/2000/svg">
<path d="M1.39583 10.4999C1.39583 6.2085 1.39583 4.06184 2.72887 2.72879C4.06191 1.39575 6.20762 1.39575 10.5 1.39575C14.7914 1.39575 16.9381 1.39575 18.2711 2.72879C19.6042 4.06184 19.6042 6.20754 19.6042 10.4999C19.6042 14.7913 19.6042 16.938 18.2711 18.271C16.9381 19.6041 14.7924 19.6041 10.5 19.6041C6.20858 19.6041 4.06191 19.6041 2.72887 18.271C1.39583 16.938 1.39583 14.7923 1.39583 10.4999Z" stroke="white" stroke-width="1.5" stroke-linecap="round" stroke-linejoin="round"/>
<path d="M15.7785 5.229H15.7689M14.8125 10.4998C14.8125 11.6436 14.3581 12.7405 13.5494 13.5492C12.7406 14.358 11.6437 14.8123 10.5 14.8123C9.35625 14.8123 8.25935 14.358 7.4506 13.5492C6.64185 12.7405 6.1875 11.6436 6.1875 10.4998C6.1875 9.35609 6.64185 8.25919 7.4506 7.45044C8.25935 6.64169 9.35625 6.18734 10.5 6.18734C11.6437 6.18734 12.7406 6.64169 13.5494 7.45044C14.3581 8.25919 14.8125 9.35609 14.8125 10.4998Z" stroke="white" stroke-width="1.5" stroke-linecap="round" stroke-linejoin="round"/>
</svg>
