<svg width="24" height="24" viewBox="0 0 24 24" fill="none" xmlns="http://www.w3.org/2000/svg">
<path d="M6 8.4C5.34 8.4 4.7752 8.1652 4.3056 7.6956C3.836 7.226 3.6008 6.6608 3.6 6C3.5992 5.3392 3.8344 4.7744 4.3056 4.3056C4.7768 3.8368 5.3416 3.6016 6 3.6C6.6584 3.5984 7.2236 3.8336 7.6956 4.3056C8.1676 4.7776 8.4024 5.3424 8.4 6C8.3976 6.6576 8.1628 7.2228 7.6956 7.6956C7.2284 8.1684 6.6632 8.4032 6 8.4ZM3.6 24C3.26 24 2.9752 23.8848 2.7456 23.6544C2.516 23.424 2.4008 23.1392 2.4 22.8C1.74 22.8 1.1752 22.5652 0.7056 22.0956C0.236 21.626 0.0008 21.0608 0 20.4V13.2H3.6V12.3C3.6 11.54 3.86 10.9 4.38 10.38C4.9 9.86 5.54 9.6 6.3 9.6C6.7 9.6 7.07 9.68 7.41 9.84C7.75 10 8.06 10.22 8.34 10.5L10.02 12.36C10.18 12.52 10.3352 12.67 10.4856 12.81C10.636 12.95 10.8008 13.08 10.98 13.2H19.2V3.42C19.2 3.14 19.1 2.9 18.9 2.7C18.7 2.5 18.46 2.4 18.18 2.4C18.06 2.4 17.9448 2.4252 17.8344 2.4756C17.724 2.526 17.6192 2.6008 17.52 2.7L16.02 4.2C16.12 4.54 16.14 4.8752 16.08 5.2056C16.02 5.536 15.9 5.8408 15.72 6.12L12.42 2.76C12.7 2.58 13 2.4648 13.32 2.4144C13.64 2.364 13.96 2.3992 14.28 2.52L15.78 1.02C16.1 0.7 16.4652 0.45 16.8756 0.27C17.286 0.0899999 17.7208 0 18.18 0C19.14 0 19.95 0.33 20.61 0.99C21.27 1.65 21.6 2.46 21.6 3.42V13.2H24V20.4C24 21.06 23.7652 21.6252 23.2956 22.0956C22.826 22.566 22.2608 22.8008 21.6 22.8C21.6 23.14 21.4848 23.4252 21.2544 23.6556C21.024 23.886 20.7392 24.0008 20.4 24H3.6ZM2.4 20.4H21.6V15.6H2.4V20.4Z" fill="black"/>
</svg>
