<svg width="22" height="16" viewBox="0 0 22 16" fill="none" xmlns="http://www.w3.org/2000/svg">
                     <path d="M0 5.00001L2 7.00001C6.97 2.03001 15.03 2.03001 20 7.00001L22 5.00001C15.93 -1.06999 6.08 -1.06999 0 5.00001ZM8 13L11 16L14 13C13.6064 12.6054 13.1388 12.2923 12.624 12.0786C12.1092 11.865 11.5574 11.755 11 11.755C10.4426 11.755 9.89075 11.865 9.37596 12.0786C8.86117 12.2923 8.39359 12.6054 8 13ZM4 9.00001L6 11C7.32646 9.67465 9.12487 8.93016 11 8.93016C12.8751 8.93016 14.6735 9.67465 16 11L18 9.00001C14.14 5.14001 7.87 5.14001 4 9.00001Z" fill="black" />
                  </svg>